<?xml version="1.0" encoding="UTF-8" ?>
<!DOCTYPE svg PUBLIC "-//W3C//DTD SVG 1.1//EN" "http://www.w3.org/Graphics/SVG/1.1/DTD/svg11.dtd">
<svg width="120pt" height="120pt" viewBox="0 0 120 120" version="1.1" xmlns="http://www.w3.org/2000/svg">
<g id="#ffab4aff">
<path fill="#ffab4a" opacity="1.00" d=" M 56.50 0.00 L 63.47 0.00 C 70.24 0.61 76.98 1.99 83.24 4.68 C 97.53 10.63 109.28 22.36 115.26 36.63 C 117.98 42.92 119.39 49.70 120.00 56.51 L 120.00 63.48 C 119.39 70.24 118.01 76.98 115.32 83.24 C 109.27 97.77 97.24 109.69 82.64 115.57 C 76.56 118.10 70.04 119.40 63.50 120.00 L 56.52 120.00 C 49.97 119.41 43.45 118.10 37.36 115.57 C 22.76 109.68 10.73 97.77 4.68 83.24 C 1.99 76.99 0.62 70.25 0.00 63.49 L 0.00 56.53 C 0.61 49.72 2.01 42.93 4.74 36.63 C 10.72 22.36 22.47 10.63 36.76 4.69 C 43.01 2.00 49.75 0.62 56.50 0.00 M 34.47 29.78 C 32.26 30.41 32.54 33.16 32.40 34.95 C 32.43 51.64 32.49 68.33 32.38 85.02 C 32.47 86.71 32.33 88.51 33.01 90.11 C 34.06 91.75 36.28 91.42 37.95 91.60 C 52.64 91.57 67.33 91.51 82.02 91.62 C 83.72 91.53 85.51 91.67 87.11 90.99 C 88.75 89.94 88.42 87.71 88.60 86.05 C 88.57 69.36 88.51 52.67 88.62 35.98 C 88.53 34.29 88.67 32.49 87.99 30.89 C 86.94 29.24 84.71 29.57 83.05 29.40 C 68.70 29.42 54.35 29.50 40.00 29.37 C 38.16 29.41 36.28 29.34 34.47 29.78 Z" />
<path fill="#ffab4a" opacity="1.00" d=" M 34.81 31.84 C 51.94 31.69 69.06 31.69 86.19 31.84 C 86.21 34.78 86.22 37.71 86.18 40.65 C 69.06 40.61 51.94 40.61 34.82 40.65 C 34.78 37.71 34.79 34.78 34.81 31.84 Z" />
<path fill="#ffab4a" opacity="1.00" d=" M 34.76 42.97 C 51.92 42.96 69.08 42.96 86.24 42.97 C 86.21 58.36 86.35 73.76 86.16 89.16 C 69.05 89.31 51.95 89.31 34.84 89.16 C 34.65 73.76 34.79 58.36 34.76 42.97 M 46.92 58.71 C 45.35 57.48 43.79 56.25 42.22 55.02 C 41.92 55.48 41.31 56.41 41.00 56.87 C 43.18 58.69 45.35 60.52 47.57 62.29 C 49.95 58.13 52.38 53.91 53.41 49.18 C 49.93 51.29 48.63 55.27 46.92 58.71 M 56.66 60.01 C 59.20 62.45 62.81 61.78 66.00 61.88 C 71.24 61.76 76.56 62.24 81.71 60.98 C 77.43 58.84 72.60 59.52 68.00 59.46 C 64.21 59.45 60.42 59.50 56.66 60.01 M 47.05 78.96 C 45.00 77.63 42.83 76.46 40.48 75.74 C 42.32 78.53 44.82 80.77 47.38 82.87 C 49.64 78.69 53.39 74.53 52.50 69.43 C 50.35 72.41 48.63 75.66 47.05 78.96 M 56.73 81.98 C 62.47 82.57 68.24 82.37 74.00 82.44 C 76.66 82.52 79.27 81.93 81.75 81.03 C 76.31 79.41 70.59 80.15 65.00 79.97 C 62.13 80.05 58.80 79.46 56.73 81.98 Z" />
</g>
<g id="#ffffffff">
<path fill="#ffffff" opacity="1.00" d=" M 34.47 29.78 C 36.28 29.34 38.16 29.41 40.00 29.37 C 54.35 29.50 68.70 29.42 83.05 29.40 C 84.71 29.57 86.94 29.24 87.99 30.89 C 88.67 32.49 88.53 34.29 88.62 35.98 C 88.51 52.67 88.57 69.36 88.60 86.05 C 88.42 87.71 88.75 89.94 87.11 90.99 C 85.51 91.67 83.72 91.53 82.02 91.62 C 67.33 91.51 52.64 91.57 37.95 91.60 C 36.28 91.42 34.06 91.75 33.01 90.11 C 32.33 88.51 32.47 86.71 32.38 85.02 C 32.49 68.33 32.43 51.64 32.40 34.95 C 32.54 33.16 32.26 30.41 34.47 29.78 M 34.81 31.84 C 34.79 34.78 34.78 37.71 34.82 40.65 C 51.94 40.61 69.06 40.61 86.18 40.65 C 86.22 37.71 86.21 34.78 86.19 31.84 C 69.06 31.69 51.94 31.69 34.81 31.84 M 34.76 42.97 C 34.79 58.36 34.65 73.76 34.84 89.16 C 51.95 89.31 69.05 89.31 86.16 89.16 C 86.35 73.76 86.21 58.36 86.24 42.97 C 69.08 42.96 51.92 42.96 34.76 42.97 Z" />
<path fill="#ffffff" opacity="1.00" d=" M 46.92 58.71 C 48.63 55.27 49.93 51.29 53.41 49.18 C 52.38 53.91 49.95 58.13 47.57 62.29 C 45.35 60.52 43.18 58.69 41.00 56.87 C 41.31 56.41 41.92 55.48 42.22 55.02 C 43.79 56.25 45.35 57.48 46.92 58.71 Z" />
<path fill="#ffffff" opacity="1.00" d=" M 56.66 60.01 C 60.42 59.50 64.21 59.45 68.00 59.46 C 72.60 59.52 77.43 58.84 81.71 60.98 C 76.56 62.24 71.24 61.76 66.00 61.88 C 62.81 61.78 59.20 62.45 56.66 60.01 Z" />
<path fill="#ffffff" opacity="1.00" d=" M 47.05 78.96 C 48.63 75.66 50.35 72.41 52.50 69.43 C 53.39 74.53 49.64 78.69 47.38 82.87 C 44.82 80.77 42.32 78.53 40.48 75.74 C 42.83 76.46 45.00 77.63 47.05 78.96 Z" />
<path fill="#ffffff" opacity="1.00" d=" M 56.73 81.98 C 58.80 79.46 62.13 80.05 65.00 79.97 C 70.59 80.15 76.31 79.41 81.75 81.03 C 79.27 81.93 76.66 82.52 74.00 82.44 C 68.24 82.37 62.47 82.57 56.73 81.98 Z" />
</g>
</svg>
