<svg version="1.1" xmlns="http://www.w3.org/2000/svg" xmlns:xlink="http://www.w3.org/1999/xlink" width="42" height="52" viewBox="0 0 42 52">
<g id="icon-photo">
<path id="Rounded-Rectangl" d="M4.000,-0.000 C4.000,-0.000 27.937,-0.000 27.937,-0.000 L42.000,14.062 C42.000,14.062 42.000,48.000 42.000,48.000 C42.000,50.209 40.209,52.000 38.000,52.000 C38.000,52.000 4.000,52.000 4.000,52.000 C1.791,52.000 -0.000,50.209 -0.000,48.000 C-0.000,48.000 -0.000,4.000 -0.000,4.000 C-0.000,1.791 1.791,-0.000 4.000,-0.000 z" fill="#FFFFFF" fill-opacity="0.600"/>
<path id="Rounded-Rectangl" d="M38.000,52.000 C38.000,52.000 4.000,52.000 4.000,52.000 C1.791,52.000 -0.000,50.209 -0.000,48.000 C-0.000,48.000 -0.000,4.000 -0.000,4.000 C-0.000,1.791 1.791,-0.000 4.000,-0.000 C4.000,-0.000 27.937,-0.000 27.937,-0.000 L42.000,14.062 C42.000,14.062 42.000,48.000 42.000,48.000 C42.000,50.209 40.209,52.000 38.000,52.000 zM40.000,15.000 L27.000,2.000 C27.000,2.000 4.000,2.000 4.000,2.000 C2.895,2.000 2.000,2.895 2.000,4.000 C2.000,4.000 2.000,48.000 2.000,48.000 C2.000,49.104 2.895,50.000 4.000,50.000 C4.000,50.000 38.000,50.000 38.000,50.000 C39.104,50.000 40.000,49.104 40.000,48.000 C40.000,48.000 40.000,15.000 40.000,15.000 z" fill="#FFA000"/>
<path id="Shape-5" d="M41.707,42.023 C41.512,42.218 41.256,42.315 41.000,42.315 C40.744,42.315 40.488,42.218 40.293,42.023 C40.293,42.023 28.152,29.910 28.152,29.910 L17.874,40.172 C17.874,40.172 23.011,45.297 23.011,45.297 C23.401,45.687 23.401,46.318 23.011,46.708 C22.815,46.903 22.559,47.000 22.304,47.000 C22.048,47.000 21.792,46.903 21.597,46.708 C21.597,46.708 11.025,36.160 11.025,36.160 C11.025,36.160 1.707,45.457 1.707,45.457 C1.316,45.847 0.683,45.847 0.293,45.457 C-0.098,45.067 -0.098,44.436 0.293,44.046 C0.293,44.046 11.025,33.339 11.025,33.339 L16.459,38.761 L28.152,27.087 C28.152,27.087 41.707,40.612 41.707,40.612 C42.098,41.002 42.098,41.633 41.707,42.023 zM16.038,29.496 C13.413,29.496 11.279,27.366 11.279,24.748 C11.279,22.129 13.413,19.999 16.038,19.999 C18.663,19.999 20.797,22.129 20.797,24.748 C20.797,27.366 18.663,29.496 16.038,29.496 zM16.038,21.995 C14.517,21.995 13.279,23.230 13.279,24.748 C13.279,26.266 14.517,27.501 16.038,27.501 C17.559,27.501 18.797,26.266 18.797,24.748 C18.797,23.230 17.559,21.995 16.038,21.995 z" fill="#FFA000"/>
</g>
</svg>