<?xml version="1.0" encoding="UTF-8"?>
<svg width="43px" height="53px" viewBox="0 0 43 53" version="1.1" xmlns="http://www.w3.org/2000/svg" xmlns:xlink="http://www.w3.org/1999/xlink">
    <!-- Generator: Sketch 49.2 (51160) - http://www.bohemiancoding.com/sketch -->
    <title>icon_file_pdf</title>
    <desc>Created with Sketch.</desc>
    <defs/>
    <g id="File" stroke="none" stroke-width="1" fill="none" fill-rule="evenodd">
        <g id="icon_file_pdf">
            <path d="M28.6021667,0 L43,14.3334423 L43,48.9230769 C43,51.1745577 41.1663571,53 38.9047619,53 L4.0952381,53 C1.83364286,53 0,51.1745577 0,48.9230769 L0,4.07692308 C0,1.82544231 1.83364286,0 4.0952381,0 L28.6021667,0 Z" id="Page-1" fill="#FFFFFF"/>
            <path d="M40.952381,48.9230769 C40.952381,50.0493269 40.0350476,50.9615385 38.9047619,50.9615385 L4.0952381,50.9615385 C2.96392857,50.9615385 2.04761905,50.0493269 2.04761905,48.9230769 L2.04761905,4.07692308 C2.04761905,2.95067308 2.96392857,2.03846154 4.0952381,2.03846154 L27.6428571,2.03846154 L40.952381,15.2884615 L40.952381,48.9230769 Z M28.6031905,0 L4.0952381,0 C1.83364286,0 0,1.82544231 0,4.07692308 L0,48.9230769 C0,51.1745577 1.83364286,53 4.0952381,53 L38.9047619,53 C41.1663571,53 43,51.1745577 43,48.9230769 L43,14.3324231 L28.6031905,0 Z" id="Fill-1" fill="#F1786B"/>
            <g id="Page-1" transform="translate(7.166667, 17.326923)" fill="#F1786B">
                <path d="M26.6629126,18.7731723 C26.4952825,18.8761871 26.0138569,18.9394239 25.7051721,18.9394239 C24.7065462,18.9394239 23.4656743,18.4763673 21.7311112,17.7175256 C22.3975432,17.6675481 23.0108242,17.6410294 23.5586886,17.6410294 C24.5603809,17.6410294 24.8568,17.6369496 25.8421382,17.8929567 C26.8223657,18.1489638 26.8356534,18.6650577 26.6629126,18.7731723 M9.2518648,18.9302444 C9.63618757,18.2336195 10.0337981,17.4972167 10.4395857,16.7200159 C11.4331009,14.8106723 12.0606918,13.3195076 12.523719,12.0935295 C13.4518176,13.8090829 14.6078523,15.2686292 15.9642254,16.4374902 C16.1359441,16.580283 16.3178841,16.7291955 16.5028906,16.877088 C13.743126,17.4299001 11.3543965,18.1081659 9.2518648,18.9302444 M12.4756786,0.898574638 C13.023543,0.898574638 13.3363163,2.30406369 13.3628918,3.62489701 C13.3894673,4.94573033 13.0848711,5.87082363 12.7097475,6.55826892 C12.3959521,5.54342016 12.2456983,3.94414089 12.2456983,2.89767372 C12.2456983,2.89767372 12.2242334,0.898574638 12.4756786,0.898574638 M1.67477796,26.2034972 C1.98448487,25.336541 3.2202461,23.6199676 5.04475709,22.1022842 C5.15923621,22.007429 5.44134548,21.7381626 5.69790136,21.4862353 C3.7895753,24.5817791 2.5139508,25.8128569 1.67477796,26.2034972 M27.6032768,17.6634683 C27.5726128,17.4339799 27.3916949,17.1473744 27.1974892,16.9535841 C26.6404256,16.3966923 25.4179521,16.104987 23.5546,16.0774484 C22.2912411,16.064189 20.7723485,16.1763834 19.1737294,16.4058718 C18.459257,15.9876929 17.7212755,15.529736 17.1427471,14.9769239 C15.5839912,13.4990185 14.2858797,11.4458622 13.4732824,9.18667624 C13.5264334,8.97554689 13.5703852,8.79093621 13.614337,8.60224574 C13.614337,8.60224574 14.4892846,3.53514154 14.2593042,1.81958814 C14.2286402,1.58601993 14.2061532,1.51870333 14.1448251,1.33409265 L14.0691871,1.13622264 C13.8310297,0.57525096 13.3628918,-0.0183590732 12.630021,0.0132593306 L12.1976579,0 L12.1884587,0 C11.3666621,0 10.7053408,0.426338478 10.5285114,1.0597265 C9.99802336,3.05474579 10.5458877,6.04217498 11.539403,9.90573994 L11.2838692,10.5340282 C10.5724632,12.3046588 9.68013937,14.083449 8.89513968,15.6511099 L8.79292618,15.8530597 C7.96295255,17.5012965 7.21168332,18.9027058 6.52787499,20.0889059 L5.82566824,20.4662868 C5.77251722,20.4938254 4.56742004,21.1445526 4.28531078,21.3159039 C1.88635991,22.7754502 0.296939962,24.4287868 0.0322069941,25.7404406 C-0.0516080769,26.1626992 0.00972002383,26.6971523 0.437994594,26.9439798 L1.11873651,27.2948421 C1.41515567,27.4427346 1.72792898,27.5192308 2.04581297,27.5192308 C3.75482271,27.5192308 5.7367425,25.3538801 8.47095365,20.503005 C11.623218,19.4606176 15.2170447,18.5885616 18.3662427,18.1122457 C20.7641714,19.4830565 23.7130309,20.4397682 25.5763831,20.4397682 C25.908577,20.4397682 26.1947748,20.4081498 26.4247551,20.3449129 C26.7825024,20.2459779 27.0830101,20.0399483 27.2680165,19.7615024 C27.6298523,19.2086903 27.7003796,18.4447489 27.6032768,17.6634683" id="Fill-1"/>
            </g>
        </g>
    </g>
</svg>