<?xml version="1.0" encoding="UTF-8"?>
<svg width="43px" height="53px" viewBox="0 0 43 53" version="1.1" xmlns="http://www.w3.org/2000/svg" xmlns:xlink="http://www.w3.org/1999/xlink">
    <!-- Generator: Sketch 49.2 (51160) - http://www.bohemiancoding.com/sketch -->
    <title>icon_file_powerpoint</title>
    <desc>Created with Sketch.</desc>
    <defs/>
    <g id="File" stroke="none" stroke-width="1" fill="none" fill-rule="evenodd">
        <g id="File_Type" transform="translate(-136.000000, -84.000000)">
            <g id="icon_file_powerpoint" transform="translate(136.000000, 84.000000)">
                <path d="M4.0952381,0 L28.6021667,0 L43,14.3334423 L43,48.9230769 C43,51.1745577 41.1663571,53 38.9047619,53 L4.0952381,53 C1.83364286,53 0,51.1745577 0,48.9230769 L0,4.07692308 C0,1.82544231 1.83364286,0 4.0952381,0" id="Page-1" fill="#FFFFFF"/>
                <path d="M40.952381,48.9230769 C40.952381,50.0493269 40.0350476,50.9615385 38.9047619,50.9615385 L4.0952381,50.9615385 C2.96392857,50.9615385 2.04761905,50.0493269 2.04761905,48.9230769 L2.04761905,4.07692308 C2.04761905,2.95067308 2.96392857,2.03846154 4.0952381,2.03846154 L27.6428571,2.03846154 L40.952381,15.2884615 L40.952381,48.9230769 Z M28.6031905,0 L4.0952381,0 C1.83364286,0 0,1.82544231 0,4.07692308 L0,48.9230769 C0,51.1745577 1.83364286,53 4.0952381,53 L38.9047619,53 C41.1663571,53 43,51.1745577 43,48.9230769 L43,14.3324231 L28.6031905,0 Z" id="Fill-1" fill="#FF7351"/>
                <path d="M20.0717857,23.1151346 C22.8155952,23.1151346 24.1875,24.2903077 24.1875,26.6406538 C24.1875,27.8392692 23.8138095,28.7688077 23.0674524,29.42825 C22.3210952,30.0876923 21.2338095,30.4169038 19.806619,30.4169038 L17.6504762,30.4169038 L17.6504762,23.1151346 L20.0717857,23.1151346 Z M20.3236429,33.1209231 C22.5821667,33.1209231 24.3738333,32.5032692 25.6986429,31.2669423 C27.0244762,30.0316346 27.686881,28.4436731 27.686881,26.5010192 C27.686881,24.5604038 27.052119,23.055 25.783619,21.9868462 C24.5140952,20.9186923 22.7265238,20.3846154 20.4219286,20.3846154 L14.3333333,20.3846154 L14.3333333,40.3666346 L17.6504762,40.3666346 L17.6504762,33.1209231 L20.3236429,33.1209231 Z" id="Page-1" fill="#FF7351"/>
            </g>
        </g>
    </g>
</svg>