<?xml version="1.0" encoding="UTF-8"?>
<svg width="43px" height="53px" viewBox="0 0 43 53" version="1.1" xmlns="http://www.w3.org/2000/svg" xmlns:xlink="http://www.w3.org/1999/xlink">
    <!-- Generator: Sketch 49.2 (51160) - http://www.bohemiancoding.com/sketch -->
    <title>icon_file_music</title>
    <desc>Created with Sketch.</desc>
    <defs></defs>
    <g id="File" stroke="none" stroke-width="1" fill="none" fill-rule="evenodd">
        <g id="File_Type" transform="translate(-136.000000, -156.000000)">
            <g id="icon_file_music" transform="translate(136.000000, 156.000000)">
                <path d="M4.0952381,0 L28.6021667,0 L43,14.3334423 L43,48.9230769 C43,51.1745577 41.1663571,53 38.9047619,53 L4.0952381,53 C1.83364286,53 0,51.1745577 0,48.9230769 L0,4.07692308 C0,1.82544231 1.83364286,0 4.0952381,0" id="Page-1" fill="#FFFFFF"></path>
                <path d="M40.952381,48.9230769 C40.952381,50.0493269 40.0350476,50.9615385 38.9047619,50.9615385 L4.0952381,50.9615385 C2.96392857,50.9615385 2.04761905,50.0493269 2.04761905,48.9230769 L2.04761905,4.07692308 C2.04761905,2.95067308 2.96392857,2.03846154 4.0952381,2.03846154 L27.6428571,2.03846154 L40.952381,15.2884615 L40.952381,48.9230769 Z M28.6031905,0 L4.0952381,0 C1.83364286,0 0,1.82544231 0,4.07692308 L0,48.9230769 C0,51.1745577 1.83364286,53 4.0952381,53 L38.9047619,53 C41.1663571,53 43,51.1745577 43,48.9230769 L43,14.3324231 L28.6031905,0 Z" id="Fill-1" fill="#F47F1F"></path>
                <path d="M32.7629286,37.2697105 C32.728119,39.4274192 30.5965476,41.0663402 27.9049524,41.0663402 C25.1908333,41.0663402 23.0398095,39.4019385 23.0398095,37.2177298 C23.0398095,35.0855018 25.1908333,33.3701387 27.9049524,33.3701387 C28.9625476,33.3701387 29.9290238,33.6280038 30.7214524,34.0662724 L30.7214524,21.4624813 L19.9673571,24.3224391 L19.9673571,40.181649 C19.9673571,42.2099156 17.8163333,43.8213173 15.1032381,43.8213173 C12.389119,43.8213173 10.2380952,42.2099156 10.2380952,40.181649 C10.2380952,38.1544017 12.389119,36.5419807 15.1032381,36.5419807 C16.1608333,36.5419807 17.1262857,36.7916919 17.9187143,37.2105952 L17.9187143,24.3224391 C17.9187143,23.3857672 18.533,22.554076 19.4042619,22.2941725 L30.1583571,19.4342147 C30.7726429,19.2782726 31.438119,19.382234 31.9500238,19.7980796 C32.4629524,20.2139252 32.7700952,20.7867322 32.7700952,21.4624813 L32.7700952,37.2697105 L32.7629286,37.2697105 Z" id="Page-1" fill="#F47F1F"></path>
            </g>
        </g>
    </g>
</svg>