<?xml version="1.0" encoding="UTF-8"?>
<svg width="43px" height="53px" viewBox="0 0 43 53" version="1.1" xmlns="http://www.w3.org/2000/svg" xmlns:xlink="http://www.w3.org/1999/xlink">
    <!-- Generator: Sketch 49.2 (51160) - http://www.bohemiancoding.com/sketch -->
    <title>icon_file_default</title>
    <desc>Created with Sketch.</desc>
    <defs/>
    <g id="File" stroke="none" stroke-width="1" fill="none" fill-rule="evenodd">
        <g id="File_Type" transform="translate(-260.000000, -156.000000)">
            <g id="icon_file_default" transform="translate(260.000000, 156.000000)">
                <path d="M4.0952381,0 L28.6021667,0 L43,14.3334423 L43,48.9230769 C43,51.1745577 41.1663571,53 38.9047619,53 L4.0952381,53 C1.83364286,53 0,51.1745577 0,48.9230769 L0,4.07692308 C0,1.82544231 1.83364286,0 4.0952381,0" id="Page-1" fill="#FFFFFF"/>
                <path d="M40.952381,48.9230769 C40.952381,50.0493269 40.0350476,50.9615385 38.9047619,50.9615385 L4.0952381,50.9615385 C2.96392857,50.9615385 2.04761905,50.0493269 2.04761905,48.9230769 L2.04761905,4.07692308 C2.04761905,2.95067308 2.96392857,2.03846154 4.0952381,2.03846154 L27.6428571,2.03846154 L40.952381,15.2884615 L40.952381,48.9230769 Z M28.6031905,0 L4.0952381,0 C1.83364286,0 0,1.82544231 0,4.07692308 L0,48.9230769 C0,51.1745577 1.83364286,53 4.0952381,53 L38.9047619,53 C41.1663571,53 43,51.1745577 43,48.9230769 L43,14.3324231 L28.6031905,0 Z" id="Fill-1" fill="#01ADEE"/>
                <rect id="Rectangle" fill="#01ADEE" x="8.19047619" y="22.4230769" width="26.6190476" height="2.03846154" rx="1.01923077"/>
                <rect id="Rectangle-Copy" fill="#01ADEE" x="8.19047619" y="30.5769231" width="26.6190476" height="2.03846154" rx="1.01923077"/>
                <rect id="Rectangle-Copy-2" fill="#01ADEE" x="8.19047619" y="38.7307692" width="26.6190476" height="2.03846154" rx="1.01923077"/>
            </g>
        </g>
    </g>
</svg>