<?xml version="1.0" encoding="UTF-8"?>
<svg width="43px" height="53px" viewBox="0 0 43 53" version="1.1" xmlns="http://www.w3.org/2000/svg" xmlns:xlink="http://www.w3.org/1999/xlink">
    <!-- Generator: Sketch 49.2 (51160) - http://www.bohemiancoding.com/sketch -->
    <title>icon_file_video</title>
    <desc>Created with Sketch.</desc>
    <defs>
        <polygon id="path-1" points="0 18.6900423 0 0.000407692308 18.4695238 0.000407692308 18.4695238 18.6900423"/>
    </defs>
    <g id="File" stroke="none" stroke-width="1" fill="none" fill-rule="evenodd">
        <g id="File_Type" transform="translate(-260.000000, -84.000000)">
            <g id="icon_file_video" transform="translate(260.000000, 84.000000)">
                <path d="M4.0952381,0 L28.6021667,0 L43,14.3334423 L43,48.9230769 C43,51.1745577 41.1663571,53 38.9047619,53 L4.0952381,53 C1.83364286,53 0,51.1745577 0,48.9230769 L0,4.07692308 C0,1.82544231 1.83364286,0 4.0952381,0" id="Page-1" fill="#FFFFFF"/>
                <path d="M40.952381,48.9230769 C40.952381,50.0493269 40.0350476,50.9615385 38.9047619,50.9615385 L4.0952381,50.9615385 C2.96392857,50.9615385 2.04761905,50.0493269 2.04761905,48.9230769 L2.04761905,4.07692308 C2.04761905,2.95067308 2.96392857,2.03846154 4.0952381,2.03846154 L27.6428571,2.03846154 L40.952381,15.2884615 L40.952381,48.9230769 Z M28.6031905,0 L4.0952381,0 C1.83364286,0 0,1.82544231 0,4.07692308 L0,48.9230769 C0,51.1745577 1.83364286,53 4.0952381,53 L38.9047619,53 C41.1663571,53 43,51.1745577 43,48.9230769 L43,14.3324231 L28.6031905,0 Z" id="Fill-1" fill="#DD644C"/>
                <g id="Page-1" transform="translate(12.285714, 19.365385)">
                    <mask id="mask-2" fill="white">
                        <use xlink:href="#path-1"/>
                    </mask>
                    <g id="Clip-2"/>
                    <path d="M1.51216667,18.6900423 C1.2255,18.6900423 0.897880952,18.6085038 0.652166667,18.4433885 C0.161761905,18.1559654 0,17.1408115 0,16.5649462 L0,1.27648462 C0,0.700619231 0.161761905,0.525311538 0.652166667,0.237888462 C1.14359524,-0.0505538462 1.75890476,-0.0913230769 2.24930952,0.1961 L17.6064524,8.25108077 C18.1797857,8.53952308 18.5074048,9.11436923 18.4664524,9.73100385 C18.4664524,10.3476385 18.097881,10.9235038 17.5245476,11.1691385 L2.24930952,18.5259462 C2.00359524,18.6492731 1.75890476,18.6900423 1.51216667,18.6900423" id="Fill-1" fill="#DD644C" mask="url(#mask-2)"/>
                </g>
            </g>
        </g>
    </g>
</svg>