<?xml version="1.0" encoding="UTF-8"?>
<svg width="43px" height="53px" viewBox="0 0 43 53" version="1.1" xmlns="http://www.w3.org/2000/svg" xmlns:xlink="http://www.w3.org/1999/xlink">
    <!-- Generator: Sketch 49.2 (51160) - http://www.bohemiancoding.com/sketch -->
    <title>icon_file_zip</title>
    <desc>Created with Sketch.</desc>
    <defs/>
    <g id="File" stroke="none" stroke-width="1" fill="none" fill-rule="evenodd">
        <g id="File_Type" transform="translate(-260.000000, -12.000000)">
            <g id="icon_file_zip" transform="translate(260.000000, 12.000000)">
                <path d="M4.0952381,0 L28.6021667,0 L43,14.3334423 L43,48.9230769 C43,51.1745577 41.1663571,53 38.9047619,53 L4.0952381,53 C1.83364286,53 0,51.1745577 0,48.9230769 L0,4.07692308 C0,1.82544231 1.83364286,0 4.0952381,0" id="Page-1" fill="#FFFFFF"/>
                <path d="M40.952381,48.9230769 C40.952381,50.0493269 40.0350476,50.9615385 38.9047619,50.9615385 L4.0952381,50.9615385 C2.96392857,50.9615385 2.04761905,50.0493269 2.04761905,48.9230769 L2.04761905,4.07692308 C2.04761905,2.95067308 2.96392857,2.03846154 4.0952381,2.03846154 L27.6428571,2.03846154 L40.952381,15.2884615 L40.952381,48.9230769 Z M28.6031905,0 L4.0952381,0 C1.83364286,0 0,1.82544231 0,4.07692308 L0,48.9230769 C0,51.1745577 1.83364286,53 4.0952381,53 L38.9047619,53 C41.1663571,53 43,51.1745577 43,48.9230769 L43,14.3324231 L28.6031905,0 Z" id="Fill-1" fill="#C773C0"/>
                <path d="M11.2619048,21.4038462 L15.3571429,21.4038462 L15.3571429,16.3076923 L11.2619048,16.3076923 L11.2619048,21.4038462 Z M16.3799286,26.5 L10.2370714,26.5 C9.67192857,26.5 9.21428571,26.0433846 9.21428571,25.4807692 L9.21428571,15.2884615 C9.21428571,14.7248269 9.67192857,14.2692308 10.2370714,14.2692308 L16.3799286,14.2692308 C16.9460952,14.2692308 17.4047619,14.7248269 17.4047619,15.2884615 L17.4047619,25.4807692 C17.4047619,26.0433846 16.9460952,26.5 16.3799286,26.5 Z M13.3095238,44.8461538 L17.4047619,44.8461538 L17.4047619,41.7884615 L13.3095238,41.7884615 L13.3095238,44.8461538 Z M13.3095238,38.7307692 L17.4047619,38.7307692 L17.4047619,35.6730769 L13.3095238,35.6730769 L13.3095238,38.7307692 Z M13.3095238,32.6153846 L17.4047619,32.6153846 L17.4047619,29.5576923 L13.3095238,29.5576923 L13.3095238,32.6153846 Z M9.21428571,35.6730769 L13.3095238,35.6730769 L13.3095238,32.6153846 L9.21428571,32.6153846 L9.21428571,35.6730769 Z M9.21428571,41.7884615 L13.3095238,41.7884615 L13.3095238,38.7307692 L9.21428571,38.7307692 L9.21428571,41.7884615 Z M9.21428571,47.9038462 L13.3095238,47.9038462 L13.3095238,44.8461538 L9.21428571,44.8461538 L9.21428571,47.9038462 Z M13.3095238,50.9615385 L17.4047619,50.9615385 L17.4047619,47.9038462 L13.3095238,47.9038462 L13.3095238,50.9615385 Z" id="Page-1" fill="#C773C0"/>
            </g>
        </g>
    </g>
</svg>