<?xml version="1.0" encoding="UTF-8"?>
<svg width="43px" height="53px" viewBox="0 0 43 53" version="1.1" xmlns="http://www.w3.org/2000/svg" xmlns:xlink="http://www.w3.org/1999/xlink">
    <!-- Generator: Sketch 49.2 (51160) - http://www.bohemiancoding.com/sketch -->
    <title>icon_file_excel</title>
    <desc>Created with Sketch.</desc>
    <defs/>
    <g id="File" stroke="none" stroke-width="1" fill="none" fill-rule="evenodd">
        <g id="File_Type" transform="translate(-74.000000, -84.000000)">
            <g id="icon_file_excel" transform="translate(74.000000, 84.000000)">
                <path d="M28.6021667,0 L43,14.3334423 L43,48.9230769 C43,51.1745577 41.1663571,53 38.9047619,53 L4.0952381,53 C1.83364286,53 0,51.1745577 0,48.9230769 L0,4.07692308 C0,1.82544231 1.83364286,0 4.0952381,0 L28.6021667,0 Z" id="Page-1" fill="#FFFFFF"/>
                <path d="M40.952381,48.9230769 C40.952381,50.0493269 40.0350476,50.9615385 38.9047619,50.9615385 L4.0952381,50.9615385 C2.96392857,50.9615385 2.04761905,50.0493269 2.04761905,48.9230769 L2.04761905,4.07692308 C2.04761905,2.95067308 2.96392857,2.03846154 4.0952381,2.03846154 L27.6428571,2.03846154 L40.952381,15.2884615 L40.952381,48.9230769 Z M28.6031905,0 L4.0952381,0 C1.83364286,0 0,1.82544231 0,4.07692308 L0,48.9230769 C0,51.1745577 1.83364286,53 4.0952381,53 L38.9047619,53 C41.1663571,53 43,51.1745577 43,48.9230769 L43,14.3324231 L28.6031905,0 Z" id="Fill-1" fill="#50B371"/>
                <path d="M24.2417619,30.2915385 L30.4286429,20.3846154 L26.6774048,20.3846154 L22.9118333,27.0728077 C22.7162857,27.4162885 22.4828571,27.8810577 22.2125714,28.4660962 L22.1705952,28.4660962 C21.9832381,28.0206923 21.7733571,27.5742692 21.5399286,27.1288654 L17.914619,20.3846154 L13.8419048,20.3846154 L19.8885238,30.3200769 L13.3095238,40.3666346 L17.3269524,40.3666346 L21.5685952,33.0373462 C21.7641429,32.6092692 21.9044048,32.2933077 21.9883571,32.0894615 L22.0446667,32.0894615 C22.193119,32.4981731 22.3292857,32.8141346 22.4500952,33.0373462 L26.5658095,40.3666346 L30.5545714,40.3666346 L24.2417619,30.2915385 Z" id="Page-1" fill="#50B371"/>
            </g>
        </g>
    </g>
</svg>